PathFileType	4	(X/Y/Z)	 New Session 101.trc
DataRate	CameraRate	NumFrames	NumMarkers	Units	OrigDataRate	OrigDataStartFrame	OrigNumFrames
100	100	9	14	m	100	43	337
Frame#	Time	C7			T8			IJ			PX			AA			AC			AI			TS			SC			GH			LE			ME			US			RS			
		X1	Y1	Z1	X2	Y2	Z2	X3	Y3	Z3	X4	Y4	Z4	X5	Y5	Z5	X6	Y6	Z6	X7	Y7	Z7	X8	Y8	Z8	X9	Y9	Z9	X10	Y10	Z10	X11	Y11	Z11	X12	Y12	Z12	X13	Y13	Z13	X14	Y14	Z14	
43	0.4300	0.022060	0.108575	0.150603	0.031025	-0.105778	0.231412	0.000765	-0.000402	-0.005659	0.002393	-0.143350	-0.068920	0.221562	0.012100	0.134810	0.169435	0.053734	0.065055	0.108631	0.032432	0.194587	0.113546	-0.085373	0.227705	0.025967	0.008000	-0.002178	0.232639	0.026270	0.095249	0.322276	-0.247390	0.025503	0.239421	-0.285446	-0.007207	0.410432	-0.496383	-0.064297	0.444548	-0.450026	-0.119659	
44	0.4400	0.022074	0.108572	0.150490	0.031011	-0.105769	0.231329	0.000743	-0.000419	-0.005769	0.002392	-0.143346	-0.069032	0.221569	0.012112	0.134698	0.169433	0.053739	0.064950	0.108627	0.032445	0.194486	0.113550	-0.085356	0.227614	0.025965	0.007994	-0.002288	0.232599	0.026249	0.095117	0.322280	-0.247384	0.025426	0.239468	-0.285421	-0.007577	0.410379	-0.496383	-0.064470	0.444564	-0.450026	-0.119741	
45	0.4500	0.022092	0.108555	0.150366	0.030992	-0.105762	0.231255	0.000719	-0.000439	-0.005881	0.002395	-0.143340	-0.069144	0.221570	0.012116	0.134590	0.169430	0.053740	0.064848	0.108626	0.032453	0.194380	0.113550	-0.085340	0.227526	0.025961	0.007990	-0.002396	0.232533	0.026210	0.094969	0.322284	-0.247378	0.025345	0.239504	-0.285409	-0.007905	0.410331	-0.496383	-0.064631	0.444568	-0.450031	-0.119823	
46	0.4600	0.022111	0.108527	0.150232	0.030976	-0.105755	0.231190	0.000694	-0.000459	-0.005993	0.002401	-0.143330	-0.069254	0.221568	0.012116	0.134491	0.169427	0.053740	0.064751	0.108628	0.032458	0.194277	0.113548	-0.085325	0.227444	0.025957	0.007988	-0.002499	0.232453	0.026161	0.094817	0.322289	-0.247375	0.025262	0.239529	-0.285410	-0.008181	0.410295	-0.496383	-0.064766	0.444567	-0.450035	-0.119902	
47	0.4700	0.022128	0.108495	0.150095	0.030964	-0.105745	0.231125	0.000668	-0.000479	-0.006104	0.002409	-0.143318	-0.069361	0.221566	0.012115	0.134404	0.169423	0.053738	0.064661	0.108626	0.032463	0.194187	0.113543	-0.085314	0.227368	0.025952	0.007990	-0.002597	0.232374	0.026112	0.094672	0.322289	-0.247374	0.025175	0.239543	-0.285422	-0.008397	0.410277	-0.496384	-0.064869	0.444566	-0.450034	-0.119979	
48	0.4800	0.022138	0.108466	0.149966	0.030950	-0.105731	0.231050	0.000644	-0.000498	-0.006213	0.002416	-0.143306	-0.069462	0.221564	0.012118	0.134324	0.169419	0.053735	0.064579	0.108614	0.032469	0.194110	0.113537	-0.085307	0.227299	0.025948	0.007993	-0.002690	0.232306	0.026071	0.094547	0.322283	-0.247375	0.025087	0.239547	-0.285446	-0.008552	0.410274	-0.496384	-0.064943	0.444570	-0.450030	-0.120061	
49	0.4900	0.022140	0.108444	0.149851	0.030926	-0.105717	0.230970	0.000621	-0.000516	-0.006317	0.002423	-0.143294	-0.069554	0.221562	0.012124	0.134249	0.169414	0.053731	0.064505	0.108594	0.032478	0.194046	0.113530	-0.085303	0.227237	0.025944	0.007998	-0.002777	0.232255	0.026040	0.094445	0.322268	-0.247380	0.025002	0.239542	-0.285479	-0.008647	0.410284	-0.496385	-0.064990	0.444585	-0.450025	-0.120149	
50	0.5000	0.022136	0.108432	0.149755	0.030899	-0.105713	0.230890	0.000599	-0.000531	-0.006414	0.002426	-0.143283	-0.069638	0.221557	0.012128	0.134178	0.169410	0.053727	0.064441	0.108572	0.032486	0.193987	0.113521	-0.085303	0.227181	0.025941	0.008003	-0.002859	0.232222	0.026020	0.094366	0.322248	-0.247390	0.024926	0.239528	-0.285520	-0.008690	0.410304	-0.496387	-0.065016	0.444603	-0.450023	-0.120236	
51	0.5100	0.022127	0.108427	0.149676	0.030876	-0.105723	0.230816	0.000579	-0.000543	-0.006502	0.002427	-0.143275	-0.069712	0.221550	0.012127	0.134113	0.169406	0.053723	0.064384	0.108555	0.032485	0.193930	0.113512	-0.085307	0.227128	0.025938	0.008007	-0.002935	0.232202	0.026009	0.094307	0.322228	-0.247405	0.024856	0.239509	-0.285567	-0.008687	0.410330	-0.496390	-0.065024	0.444606	-0.450025	-0.120313	
